<svg width="127" height="123" viewBox="0 0 127 123" fill="none" xmlns="http://www.w3.org/2000/svg">
<ellipse cx="63.5" cy="61.5" rx="63.5" ry="61.5" fill="#00D646"/>
<path d="M47.15 43.525C47.4 42.075 48.15 40.875 49.4 39.925C50.65 38.975 52.05 38.5 53.6 38.5H73.85C76.85 38.5 79.575 39.125 82.025 40.375C84.475 41.575 86.4 43.25 87.8 45.4C89.2 47.5 89.9 49.875 89.9 52.525C89.9 59.225 88 64.45 84.2 68.2C80.4 71.95 75.1 73.825 68.3 73.825H52.85L51.125 83.725C50.675 86.325 49.375 88.3 47.225 89.65C45.125 91 42.275 91.675 38.675 91.675L47.15 43.525ZM69.275 64.3C72.475 64.3 74.85 63.475 76.4 61.825C77.95 60.125 78.725 57.525 78.725 54.025C78.725 52.125 78.15 50.65 77 49.6C75.9 48.55 74.3 48.025 72.2 48.025H57.425L54.5 64.3H69.275Z" fill="white"/>
<line x1="13.5171" y1="97.5543" x2="110.125" y2="25.6566" stroke="#00D646" stroke-width="6"/>
</svg>
